<?xml version="1.0" encoding="UTF-8" standalone="no"?>
<!DOCTYPE svg PUBLIC "-//W3C//DTD SVG 1.1//EN"
 "http://www.w3.org/Graphics/SVG/1.1/DTD/svg11.dtd">
<!-- Generated by graphviz version 2.38.0 (20140413.2041)
 -->
<!-- Title: G Pages: 1 -->
<svg width="1755pt" height="376pt"
 viewBox="0.00 0.00 1755.20 376.16" xmlns="http://www.w3.org/2000/svg" xmlns:xlink="http://www.w3.org/1999/xlink">
<g id="graph0" class="graph" transform="scale(1 1) rotate(0) translate(21.6 354.565)">
<title>G</title>
<polygon fill="#111111" stroke="none" points="-21.6,21.6 -21.6,-354.565 1733.6,-354.565 1733.6,21.6 -21.6,21.6"/>
<!-- bet.js -->
<g id="node1" class="node"><title>bet.js</title>
<path fill="none" stroke="#cfffac" d="M1347.83,-274C1347.83,-274 1309.17,-274 1309.17,-274 1305.33,-274 1301.5,-270.167 1301.5,-266.333 1301.5,-266.333 1301.5,-258.667 1301.5,-258.667 1301.5,-254.833 1305.33,-251 1309.17,-251 1309.17,-251 1347.83,-251 1347.83,-251 1351.67,-251 1355.5,-254.833 1355.5,-258.667 1355.5,-258.667 1355.5,-266.333 1355.5,-266.333 1355.5,-270.167 1351.67,-274 1347.83,-274"/>
<text text-anchor="middle" x="1328.5" y="-258.8" font-family="Arial" font-size="14.00" fill="#cfffac">bet.js</text>
</g>
<!-- blackjackEventLoop.js -->
<g id="node2" class="node"><title>blackjackEventLoop.js</title>
<path fill="none" stroke="#c6c5fe" d="M732.333,-194C732.333,-194 589.667,-194 589.667,-194 585.833,-194 582,-190.167 582,-186.333 582,-186.333 582,-178.667 582,-178.667 582,-174.833 585.833,-171 589.667,-171 589.667,-171 732.333,-171 732.333,-171 736.167,-171 740,-174.833 740,-178.667 740,-178.667 740,-186.333 740,-186.333 740,-190.167 736.167,-194 732.333,-194"/>
<text text-anchor="middle" x="661" y="-178.8" font-family="Arial" font-size="14.00" fill="#c6c5fe">blackjackEventLoop.js</text>
</g>
<!-- deck.js -->
<g id="node3" class="node"><title>deck.js</title>
<path fill="none" stroke="#c6c5fe" d="M1609.33,-142C1609.33,-142 1562.67,-142 1562.67,-142 1558.83,-142 1555,-138.167 1555,-134.333 1555,-134.333 1555,-126.667 1555,-126.667 1555,-122.833 1558.83,-119 1562.67,-119 1562.67,-119 1609.33,-119 1609.33,-119 1613.17,-119 1617,-122.833 1617,-126.667 1617,-126.667 1617,-134.333 1617,-134.333 1617,-138.167 1613.17,-142 1609.33,-142"/>
<text text-anchor="middle" x="1586" y="-126.8" font-family="Arial" font-size="14.00" fill="#c6c5fe">deck.js</text>
</g>
<!-- blackjackEventLoop.js&#45;&gt;deck.js -->
<g id="edge1" class="edge"><title>blackjackEventLoop.js&#45;&gt;deck.js</title>
<path fill="none" stroke="#757575" d="M740.313,-177.233C834.629,-170.966 997.87,-160.364 1138,-152.5 1287.85,-144.091 1466.06,-135.846 1544.51,-132.306"/>
<polygon fill="#757575" stroke="#757575" points="1545.08,-135.784 1554.91,-131.838 1544.76,-128.791 1545.08,-135.784"/>
</g>
<!-- gettingBetsState.js -->
<g id="node4" class="node"><title>gettingBetsState.js</title>
<path fill="none" stroke="#c6c5fe" d="M1094.33,-284C1094.33,-284 973.667,-284 973.667,-284 969.833,-284 966,-280.167 966,-276.333 966,-276.333 966,-268.667 966,-268.667 966,-264.833 969.833,-261 973.667,-261 973.667,-261 1094.33,-261 1094.33,-261 1098.17,-261 1102,-264.833 1102,-268.667 1102,-268.667 1102,-276.333 1102,-276.333 1102,-280.167 1098.17,-284 1094.33,-284"/>
<text text-anchor="middle" x="1034" y="-268.8" font-family="Arial" font-size="14.00" fill="#c6c5fe">gettingBetsState.js</text>
</g>
<!-- blackjackEventLoop.js&#45;&gt;gettingBetsState.js -->
<g id="edge2" class="edge"><title>blackjackEventLoop.js&#45;&gt;gettingBetsState.js</title>
<path fill="none" stroke="#757575" d="M693.002,-194.121C707.412,-199.701 724.705,-206.652 740,-213.5 756.327,-220.81 758.969,-226.027 776,-231.5 834.777,-250.388 904.027,-260.793 955.824,-266.391"/>
<polygon fill="#757575" stroke="#757575" points="955.633,-269.89 965.942,-267.447 956.36,-262.927 955.633,-269.89"/>
</g>
<!-- gettingPlayersState.js -->
<g id="node5" class="node"><title>gettingPlayersState.js</title>
<path fill="none" stroke="#c6c5fe" d="M922.333,-303C922.333,-303 783.667,-303 783.667,-303 779.833,-303 776,-299.167 776,-295.333 776,-295.333 776,-287.667 776,-287.667 776,-283.833 779.833,-280 783.667,-280 783.667,-280 922.333,-280 922.333,-280 926.167,-280 930,-283.833 930,-287.667 930,-287.667 930,-295.333 930,-295.333 930,-299.167 926.167,-303 922.333,-303"/>
<text text-anchor="middle" x="853" y="-287.8" font-family="Arial" font-size="14.00" fill="#c6c5fe">gettingPlayersState.js</text>
</g>
<!-- blackjackEventLoop.js&#45;&gt;gettingPlayersState.js -->
<g id="edge3" class="edge"><title>blackjackEventLoop.js&#45;&gt;gettingPlayersState.js</title>
<path fill="none" stroke="#757575" d="M704.1,-194.094C716.482,-198.806 729.507,-205.156 740,-213.5 762.002,-230.994 753.579,-248.546 776,-265.5 781.381,-269.569 787.442,-273.028 793.734,-275.963"/>
<polygon fill="#757575" stroke="#757575" points="792.491,-279.238 803.065,-279.899 795.211,-272.788 792.491,-279.238"/>
</g>
<!-- messageLog.js -->
<g id="node6" class="node"><title>messageLog.js</title>
<path fill="none" stroke="#cfffac" d="M902.833,-223C902.833,-223 803.167,-223 803.167,-223 799.333,-223 795.5,-219.167 795.5,-215.333 795.5,-215.333 795.5,-207.667 795.5,-207.667 795.5,-203.833 799.333,-200 803.167,-200 803.167,-200 902.833,-200 902.833,-200 906.667,-200 910.5,-203.833 910.5,-207.667 910.5,-207.667 910.5,-215.333 910.5,-215.333 910.5,-219.167 906.667,-223 902.833,-223"/>
<text text-anchor="middle" x="853" y="-207.8" font-family="Arial" font-size="14.00" fill="#cfffac">messageLog.js</text>
</g>
<!-- blackjackEventLoop.js&#45;&gt;messageLog.js -->
<g id="edge4" class="edge"><title>blackjackEventLoop.js&#45;&gt;messageLog.js</title>
<path fill="none" stroke="#757575" d="M737.366,-194.003C753.259,-196.429 769.919,-198.972 785.459,-201.344"/>
<polygon fill="#757575" stroke="#757575" points="785.077,-204.826 795.491,-202.875 786.133,-197.906 785.077,-204.826"/>
</g>
<!-- player.js -->
<g id="node7" class="node"><title>player.js</title>
<path fill="none" stroke="#c6c5fe" d="M1060.33,-225C1060.33,-225 1007.67,-225 1007.67,-225 1003.83,-225 1000,-221.167 1000,-217.333 1000,-217.333 1000,-209.667 1000,-209.667 1000,-205.833 1003.83,-202 1007.67,-202 1007.67,-202 1060.33,-202 1060.33,-202 1064.17,-202 1068,-205.833 1068,-209.667 1068,-209.667 1068,-217.333 1068,-217.333 1068,-221.167 1064.17,-225 1060.33,-225"/>
<text text-anchor="middle" x="1034" y="-209.8" font-family="Arial" font-size="14.00" fill="#c6c5fe">player.js</text>
</g>
<!-- blackjackEventLoop.js&#45;&gt;player.js -->
<g id="edge5" class="edge"><title>blackjackEventLoop.js&#45;&gt;player.js</title>
<path fill="none" stroke="#757575" d="M740.287,-180.936C793.892,-180.818 866.493,-182.535 930,-190.5 949.941,-193.001 971.703,-197.581 990.065,-202"/>
<polygon fill="#757575" stroke="#757575" points="989.335,-205.425 999.883,-204.424 991.013,-198.629 989.335,-205.425"/>
</g>
<!-- card.js -->
<g id="node9" class="node"><title>card.js</title>
<path fill="none" stroke="#cfffac" d="M1704.33,-83C1704.33,-83 1660.67,-83 1660.67,-83 1656.83,-83 1653,-79.1667 1653,-75.3333 1653,-75.3333 1653,-67.6667 1653,-67.6667 1653,-63.8333 1656.83,-60 1660.67,-60 1660.67,-60 1704.33,-60 1704.33,-60 1708.17,-60 1712,-63.8333 1712,-67.6667 1712,-67.6667 1712,-75.3333 1712,-75.3333 1712,-79.1667 1708.17,-83 1704.33,-83"/>
<text text-anchor="middle" x="1682.5" y="-67.8" font-family="Arial" font-size="14.00" fill="#cfffac">card.js</text>
</g>
<!-- deck.js&#45;&gt;card.js -->
<g id="edge11" class="edge"><title>deck.js&#45;&gt;card.js</title>
<path fill="none" stroke="#757575" d="M1605.67,-118.843C1619.52,-110.197 1638.62,-98.2745 1654.18,-88.5573"/>
<polygon fill="#757575" stroke="#757575" points="1656.24,-91.3972 1662.87,-83.1323 1652.53,-85.4594 1656.24,-91.3972"/>
</g>
<!-- gettingBetsState.js&#45;&gt;bet.js -->
<g id="edge15" class="edge"><title>gettingBetsState.js&#45;&gt;bet.js</title>
<path fill="none" stroke="#757575" d="M1102.11,-270.206C1160.91,-268.195 1244.14,-265.35 1291.26,-263.739"/>
<polygon fill="#757575" stroke="#757575" points="1291.43,-267.235 1301.31,-263.395 1291.19,-260.239 1291.43,-267.235"/>
</g>
<!-- gettingPlayersState.js&#45;&gt;gettingBetsState.js -->
<g id="edge16" class="edge"><title>gettingPlayersState.js&#45;&gt;gettingBetsState.js</title>
<path fill="none" stroke="#757575" d="M930.172,-283.415C938.721,-282.507 947.436,-281.582 955.995,-280.674"/>
<polygon fill="#757575" stroke="#757575" points="956.378,-284.153 965.953,-279.617 955.639,-277.192 956.378,-284.153"/>
</g>
<!-- gettingPlayersState.js&#45;&gt;player.js -->
<g id="edge17" class="edge"><title>gettingPlayersState.js&#45;&gt;player.js</title>
<path fill="none" stroke="#757575" d="M880.412,-279.991C911.347,-266.511 962.74,-244.116 997.231,-229.087"/>
<polygon fill="#757575" stroke="#757575" points="998.71,-232.26 1006.48,-225.056 995.914,-225.843 998.71,-232.26"/>
</g>
<!-- player.js&#45;&gt;bet.js -->
<g id="edge18" class="edge"><title>player.js&#45;&gt;bet.js</title>
<path fill="none" stroke="#757575" d="M1068.27,-219.073C1123.53,-228.33 1233.8,-246.803 1291.08,-256.398"/>
<polygon fill="#757575" stroke="#757575" points="1290.69,-259.882 1301.13,-258.082 1291.84,-252.978 1290.69,-259.882"/>
</g>
<!-- player.js&#45;&gt;deck.js -->
<g id="edge20" class="edge"><title>player.js&#45;&gt;deck.js</title>
<path fill="none" stroke="#757575" d="M1068.14,-219.816C1149.08,-233.65 1361.68,-260.335 1519,-193.5 1540.33,-184.439 1558.83,-165.162 1570.78,-150.302"/>
<polygon fill="#757575" stroke="#757575" points="1573.7,-152.237 1577.02,-142.175 1568.15,-147.971 1573.7,-152.237"/>
</g>
<!-- blackjackHand.js -->
<g id="node8" class="node"><title>blackjackHand.js</title>
<path fill="none" stroke="#c6c5fe" d="M1381.83,-185C1381.83,-185 1275.17,-185 1275.17,-185 1271.33,-185 1267.5,-181.167 1267.5,-177.333 1267.5,-177.333 1267.5,-169.667 1267.5,-169.667 1267.5,-165.833 1271.33,-162 1275.17,-162 1275.17,-162 1381.83,-162 1381.83,-162 1385.67,-162 1389.5,-165.833 1389.5,-169.667 1389.5,-169.667 1389.5,-177.333 1389.5,-177.333 1389.5,-181.167 1385.67,-185 1381.83,-185"/>
<text text-anchor="middle" x="1328.5" y="-169.8" font-family="Arial" font-size="14.00" fill="#c6c5fe">blackjackHand.js</text>
</g>
<!-- player.js&#45;&gt;blackjackHand.js -->
<g id="edge19" class="edge"><title>player.js&#45;&gt;blackjackHand.js</title>
<path fill="none" stroke="#757575" d="M1068.27,-208.95C1113.99,-202.698 1197.37,-191.295 1257.24,-183.109"/>
<polygon fill="#757575" stroke="#757575" points="1257.94,-186.545 1267.38,-181.722 1257,-179.609 1257.94,-186.545"/>
</g>
<!-- blackjackHand.js&#45;&gt;deck.js -->
<g id="edge6" class="edge"><title>blackjackHand.js&#45;&gt;deck.js</title>
<path fill="none" stroke="#757575" d="M1389.54,-167.064C1426.95,-162.608 1475.99,-155.96 1519,-147.5 1527.51,-145.826 1536.56,-143.716 1545.14,-141.558"/>
<polygon fill="#757575" stroke="#757575" points="1546.13,-144.917 1554.94,-139.025 1544.38,-138.139 1546.13,-144.917"/>
</g>
<!-- checkDealerForNaturalsState.js -->
<g id="node10" class="node"><title>checkDealerForNaturalsState.js</title>
<path fill="none" stroke="#c6c5fe" d="M314.333,-227C314.333,-227 113.667,-227 113.667,-227 109.833,-227 106,-223.167 106,-219.333 106,-219.333 106,-211.667 106,-211.667 106,-207.833 109.833,-204 113.667,-204 113.667,-204 314.333,-204 314.333,-204 318.167,-204 322,-207.833 322,-211.667 322,-211.667 322,-219.333 322,-219.333 322,-223.167 318.167,-227 314.333,-227"/>
<text text-anchor="middle" x="214" y="-211.8" font-family="Arial" font-size="14.00" fill="#c6c5fe">checkDealerForNaturalsState.js</text>
</g>
<!-- dealerHasBlackjackState.js -->
<g id="node11" class="node"><title>dealerHasBlackjackState.js</title>
<path fill="none" stroke="#c6c5fe" d="M538.333,-186C538.333,-186 365.667,-186 365.667,-186 361.833,-186 358,-182.167 358,-178.333 358,-178.333 358,-170.667 358,-170.667 358,-166.833 361.833,-163 365.667,-163 365.667,-163 538.333,-163 538.333,-163 542.167,-163 546,-166.833 546,-170.667 546,-170.667 546,-178.333 546,-178.333 546,-182.167 542.167,-186 538.333,-186"/>
<text text-anchor="middle" x="452" y="-170.8" font-family="Arial" font-size="14.00" fill="#c6c5fe">dealerHasBlackjackState.js</text>
</g>
<!-- checkDealerForNaturalsState.js&#45;&gt;dealerHasBlackjackState.js -->
<g id="edge7" class="edge"><title>checkDealerForNaturalsState.js&#45;&gt;dealerHasBlackjackState.js</title>
<path fill="none" stroke="#757575" d="M281.367,-203.97C310.397,-198.927 344.62,-192.981 374.695,-187.756"/>
<polygon fill="#757575" stroke="#757575" points="375.469,-191.174 384.722,-186.014 374.271,-184.278 375.469,-191.174"/>
</g>
<!-- dealerNoBlackjackState.js -->
<g id="node12" class="node"><title>dealerNoBlackjackState.js</title>
<path fill="none" stroke="#c6c5fe" d="M534.833,-227C534.833,-227 369.167,-227 369.167,-227 365.333,-227 361.5,-223.167 361.5,-219.333 361.5,-219.333 361.5,-211.667 361.5,-211.667 361.5,-207.833 365.333,-204 369.167,-204 369.167,-204 534.833,-204 534.833,-204 538.667,-204 542.5,-207.833 542.5,-211.667 542.5,-211.667 542.5,-219.333 542.5,-219.333 542.5,-223.167 538.667,-227 534.833,-227"/>
<text text-anchor="middle" x="452" y="-211.8" font-family="Arial" font-size="14.00" fill="#c6c5fe">dealerNoBlackjackState.js</text>
</g>
<!-- checkDealerForNaturalsState.js&#45;&gt;dealerNoBlackjackState.js -->
<g id="edge8" class="edge"><title>checkDealerForNaturalsState.js&#45;&gt;dealerNoBlackjackState.js</title>
<path fill="none" stroke="#757575" d="M322.296,-215.5C331.864,-215.5 341.527,-215.5 351.03,-215.5"/>
<polygon fill="#757575" stroke="#757575" points="351.266,-219 361.266,-215.5 351.266,-212 351.266,-219"/>
</g>
<!-- resolveState.js -->
<g id="node13" class="node"><title>resolveState.js</title>
<path fill="none" stroke="#c6c5fe" d="M708.333,-246C708.333,-246 613.667,-246 613.667,-246 609.833,-246 606,-242.167 606,-238.333 606,-238.333 606,-230.667 606,-230.667 606,-226.833 609.833,-223 613.667,-223 613.667,-223 708.333,-223 708.333,-223 712.167,-223 716,-226.833 716,-230.667 716,-230.667 716,-238.333 716,-238.333 716,-242.167 712.167,-246 708.333,-246"/>
<text text-anchor="middle" x="661" y="-230.8" font-family="Arial" font-size="14.00" fill="#c6c5fe">resolveState.js</text>
</g>
<!-- dealerHasBlackjackState.js&#45;&gt;resolveState.js -->
<g id="edge9" class="edge"><title>dealerHasBlackjackState.js&#45;&gt;resolveState.js</title>
<path fill="none" stroke="#757575" d="M512.312,-186.089C523.562,-188.616 535.191,-191.454 546,-194.5 571.21,-201.603 598.951,-211.294 620.755,-219.359"/>
<polygon fill="#757575" stroke="#757575" points="619.733,-222.713 630.325,-222.934 622.183,-216.155 619.733,-222.713"/>
</g>
<!-- dealerNoBlackjackState.js&#45;&gt;resolveState.js -->
<g id="edge10" class="edge"><title>dealerNoBlackjackState.js&#45;&gt;resolveState.js</title>
<path fill="none" stroke="#757575" d="M542.589,-223.723C560.415,-225.359 578.801,-227.047 595.581,-228.587"/>
<polygon fill="#757575" stroke="#757575" points="595.524,-232.097 605.802,-229.525 596.164,-225.126 595.524,-232.097"/>
</g>
<!-- resolveState.js&#45;&gt;gettingPlayersState.js -->
<g id="edge21" class="edge"><title>resolveState.js&#45;&gt;gettingPlayersState.js</title>
<path fill="none" stroke="#757575" d="M700.449,-246.035C730.323,-254.997 771.927,-267.478 803.988,-277.096"/>
<polygon fill="#757575" stroke="#757575" points="803.024,-280.461 813.608,-279.982 805.035,-273.756 803.024,-280.461"/>
</g>
<!-- deckConfig.js -->
<g id="node14" class="node"><title>deckConfig.js</title>
<path fill="none" stroke="#c6c5fe" d="M1078.33,-75C1078.33,-75 989.667,-75 989.667,-75 985.833,-75 982,-71.1667 982,-67.3333 982,-67.3333 982,-59.6667 982,-59.6667 982,-55.8333 985.833,-52 989.667,-52 989.667,-52 1078.33,-52 1078.33,-52 1082.17,-52 1086,-55.8333 1086,-59.6667 1086,-59.6667 1086,-67.3333 1086,-67.3333 1086,-71.1667 1082.17,-75 1078.33,-75"/>
<text text-anchor="middle" x="1034" y="-59.8" font-family="Arial" font-size="14.00" fill="#c6c5fe">deckConfig.js</text>
</g>
<!-- testDeckConfigs/bothNoBlackjack.js -->
<g id="node15" class="node"><title>testDeckConfigs/bothNoBlackjack.js</title>
<path fill="none" stroke="#c6c5fe" d="M1443.33,-105C1443.33,-105 1213.67,-105 1213.67,-105 1209.83,-105 1206,-101.167 1206,-97.3333 1206,-97.3333 1206,-89.6667 1206,-89.6667 1206,-85.8333 1209.83,-82 1213.67,-82 1213.67,-82 1443.33,-82 1443.33,-82 1447.17,-82 1451,-85.8333 1451,-89.6667 1451,-89.6667 1451,-97.3333 1451,-97.3333 1451,-101.167 1447.17,-105 1443.33,-105"/>
<text text-anchor="middle" x="1328.5" y="-89.8" font-family="Arial" font-size="14.00" fill="#c6c5fe">testDeckConfigs/bothNoBlackjack.js</text>
</g>
<!-- deckConfig.js&#45;&gt;testDeckConfigs/bothNoBlackjack.js -->
<g id="edge12" class="edge"><title>deckConfig.js&#45;&gt;testDeckConfigs/bothNoBlackjack.js</title>
<path fill="none" stroke="#757575" d="M1086.28,-68.7599C1119.28,-72.1436 1163.63,-76.6923 1205.3,-80.9663"/>
<polygon fill="#757575" stroke="#757575" points="1204.96,-84.4496 1215.26,-81.9882 1205.67,-77.4861 1204.96,-84.4496"/>
</g>
<!-- testDeckConfigs/dealerHasBlackjackDeck.js -->
<g id="node16" class="node"><title>testDeckConfigs/dealerHasBlackjackDeck.js</title>
<path fill="none" stroke="#c6c5fe" d="M1469.33,-64C1469.33,-64 1187.67,-64 1187.67,-64 1183.83,-64 1180,-60.1667 1180,-56.3333 1180,-56.3333 1180,-48.6667 1180,-48.6667 1180,-44.8333 1183.83,-41 1187.67,-41 1187.67,-41 1469.33,-41 1469.33,-41 1473.17,-41 1477,-44.8333 1477,-48.6667 1477,-48.6667 1477,-56.3333 1477,-56.3333 1477,-60.1667 1473.17,-64 1469.33,-64"/>
<text text-anchor="middle" x="1328.5" y="-48.8" font-family="Arial" font-size="14.00" fill="#c6c5fe">testDeckConfigs/dealerHasBlackjackDeck.js</text>
</g>
<!-- deckConfig.js&#45;&gt;testDeckConfigs/dealerHasBlackjackDeck.js -->
<g id="edge13" class="edge"><title>deckConfig.js&#45;&gt;testDeckConfigs/dealerHasBlackjackDeck.js</title>
<path fill="none" stroke="#757575" d="M1086.28,-61.5714C1109.91,-60.6829 1139.36,-59.5753 1169.48,-58.4425"/>
<polygon fill="#757575" stroke="#757575" points="1169.86,-61.9311 1179.72,-58.0577 1169.59,-54.936 1169.86,-61.9311"/>
</g>
<!-- testDeckConfigs/dealerNoBlackjackPlayerHasBlackjack.js -->
<g id="node17" class="node"><title>testDeckConfigs/dealerNoBlackjackPlayerHasBlackjack.js</title>
<path fill="none" stroke="#c6c5fe" d="M1511.33,-23C1511.33,-23 1145.67,-23 1145.67,-23 1141.83,-23 1138,-19.1667 1138,-15.3333 1138,-15.3333 1138,-7.66667 1138,-7.66667 1138,-3.83333 1141.83,-0 1145.67,-0 1145.67,-0 1511.33,-0 1511.33,-0 1515.17,-0 1519,-3.83333 1519,-7.66667 1519,-7.66667 1519,-15.3333 1519,-15.3333 1519,-19.1667 1515.17,-23 1511.33,-23"/>
<text text-anchor="middle" x="1328.5" y="-7.8" font-family="Arial" font-size="14.00" fill="#c6c5fe">testDeckConfigs/dealerNoBlackjackPlayerHasBlackjack.js</text>
</g>
<!-- deckConfig.js&#45;&gt;testDeckConfigs/dealerNoBlackjackPlayerHasBlackjack.js -->
<g id="edge14" class="edge"><title>deckConfig.js&#45;&gt;testDeckConfigs/dealerNoBlackjackPlayerHasBlackjack.js</title>
<path fill="none" stroke="#757575" d="M1066.59,-51.9175C1086.76,-44.9664 1113.61,-36.5255 1138,-31.5 1151.04,-28.8141 1164.66,-26.4784 1178.35,-24.4492"/>
<polygon fill="#757575" stroke="#757575" points="1178.93,-27.9027 1188.33,-23.0252 1177.94,-20.9729 1178.93,-27.9027"/>
</g>
<!-- testDeckConfigs/bothNoBlackjack.js&#45;&gt;deck.js -->
<g id="edge29" class="edge"><title>testDeckConfigs/bothNoBlackjack.js&#45;&gt;deck.js</title>
<path fill="none" stroke="#757575" d="M1417.32,-105.013C1449.35,-109.354 1485.84,-114.463 1519,-119.5 1527.33,-120.765 1536.23,-122.196 1544.72,-123.597"/>
<polygon fill="#757575" stroke="#757575" points="1544.36,-127.086 1554.8,-125.279 1545.51,-120.181 1544.36,-127.086"/>
</g>
<!-- testDeckConfigs/bothNoBlackjack.js&#45;&gt;card.js -->
<g id="edge28" class="edge"><title>testDeckConfigs/bothNoBlackjack.js&#45;&gt;card.js</title>
<path fill="none" stroke="#757575" d="M1451.24,-86.7959C1502.43,-83.8481 1562.63,-80.2148 1617,-76.5 1625.36,-75.9285 1634.34,-75.2652 1642.85,-74.6122"/>
<polygon fill="#757575" stroke="#757575" points="1643.23,-78.0928 1652.93,-73.8276 1642.69,-71.1139 1643.23,-78.0928"/>
</g>
<!-- testDeckConfigs/dealerHasBlackjackDeck.js&#45;&gt;deck.js -->
<g id="edge31" class="edge"><title>testDeckConfigs/dealerHasBlackjackDeck.js&#45;&gt;deck.js</title>
<path fill="none" stroke="#757575" d="M1477.2,-59.023C1491.65,-62.3324 1505.82,-66.7234 1519,-72.5 1538.67,-81.1203 1556.66,-97.7999 1568.88,-111.068"/>
<polygon fill="#757575" stroke="#757575" points="1566.46,-113.611 1575.7,-118.785 1571.7,-108.975 1566.46,-113.611"/>
</g>
<!-- testDeckConfigs/dealerHasBlackjackDeck.js&#45;&gt;card.js -->
<g id="edge30" class="edge"><title>testDeckConfigs/dealerHasBlackjackDeck.js&#45;&gt;card.js</title>
<path fill="none" stroke="#757575" d="M1477.25,-60.4751C1537.7,-63.7379 1602.71,-67.2472 1642.76,-69.4087"/>
<polygon fill="#757575" stroke="#757575" points="1642.7,-72.9106 1652.87,-69.9548 1643.08,-65.9208 1642.7,-72.9106"/>
</g>
<!-- testDeckConfigs/dealerNoBlackjackPlayerHasBlackjack.js&#45;&gt;deck.js -->
<g id="edge33" class="edge"><title>testDeckConfigs/dealerNoBlackjackPlayerHasBlackjack.js&#45;&gt;deck.js</title>
<path fill="none" stroke="#757575" d="M1502.65,-23.0232C1508.29,-25.5185 1513.76,-28.3326 1519,-31.5 1548.56,-49.3802 1567.67,-86.1533 1577.36,-109.501"/>
<polygon fill="#757575" stroke="#757575" points="1574.13,-110.855 1581.05,-118.88 1580.65,-108.293 1574.13,-110.855"/>
</g>
<!-- testDeckConfigs/dealerNoBlackjackPlayerHasBlackjack.js&#45;&gt;card.js -->
<g id="edge32" class="edge"><title>testDeckConfigs/dealerNoBlackjackPlayerHasBlackjack.js&#45;&gt;card.js</title>
<path fill="none" stroke="#757575" d="M1460.82,-23.0116C1480.38,-25.4057 1500.26,-28.2208 1519,-31.5 1561.87,-39.0023 1610.2,-51.4195 1642.93,-60.4316"/>
<polygon fill="#757575" stroke="#757575" points="1642.41,-63.9195 1652.98,-63.2274 1644.29,-57.1755 1642.41,-63.9195"/>
</g>
<!-- server.js -->
<g id="node18" class="node"><title>server.js</title>
<path fill="none" stroke="#c6c5fe" d="M62.3333,-247C62.3333,-247 7.66667,-247 7.66667,-247 3.83333,-247 0,-243.167 0,-239.333 0,-239.333 0,-231.667 0,-231.667 0,-227.833 3.83333,-224 7.66667,-224 7.66667,-224 62.3333,-224 62.3333,-224 66.1667,-224 70,-227.833 70,-231.667 70,-231.667 70,-239.333 70,-239.333 70,-243.167 66.1667,-247 62.3333,-247"/>
<text text-anchor="middle" x="35" y="-231.8" font-family="Arial" font-size="14.00" fill="#c6c5fe">server.js</text>
</g>
<!-- server.js&#45;&gt;blackjackEventLoop.js -->
<g id="edge22" class="edge"><title>server.js&#45;&gt;blackjackEventLoop.js</title>
<path fill="none" stroke="#757575" d="M51.8418,-223.914C65.5068,-214.502 86.123,-201.656 106,-194.5 290.792,-127.972 351.119,-129.101 546,-153.5 568.9,-156.367 593.797,-162.354 614.465,-168.148"/>
<polygon fill="#757575" stroke="#757575" points="613.667,-171.56 624.244,-170.962 615.602,-164.833 613.667,-171.56"/>
</g>
<!-- server.js&#45;&gt;gettingBetsState.js -->
<g id="edge25" class="edge"><title>server.js&#45;&gt;gettingBetsState.js</title>
<path fill="none" stroke="#757575" d="M51.836,-247.103C65.4973,-256.524 86.1116,-269.376 106,-276.5 252.174,-328.861 295.73,-331.5 451,-331.5 451,-331.5 451,-331.5 662,-331.5 781.442,-331.5 813.39,-337.359 930,-311.5 953.903,-306.199 979.663,-296.444 999.442,-288.017"/>
<polygon fill="#757575" stroke="#757575" points="1000.87,-291.214 1008.64,-284.012 998.072,-284.796 1000.87,-291.214"/>
</g>
<!-- server.js&#45;&gt;gettingPlayersState.js -->
<g id="edge26" class="edge"><title>server.js&#45;&gt;gettingPlayersState.js</title>
<path fill="none" stroke="#757575" d="M70.3489,-243.978C81.6401,-246.465 94.297,-248.934 106,-250.5 343.367,-282.257 626.378,-289.533 765.731,-291.122"/>
<polygon fill="#757575" stroke="#757575" points="765.883,-294.623 775.92,-291.231 765.958,-287.624 765.883,-294.623"/>
</g>
<!-- server.js&#45;&gt;checkDealerForNaturalsState.js -->
<g id="edge23" class="edge"><title>server.js&#45;&gt;checkDealerForNaturalsState.js</title>
<path fill="none" stroke="#757575" d="M70.1274,-231.644C79.3569,-230.601 89.8745,-229.412 100.921,-228.164"/>
<polygon fill="#757575" stroke="#757575" points="101.648,-231.604 111.192,-227.004 100.862,-224.649 101.648,-231.604"/>
</g>
<!-- server.js&#45;&gt;resolveState.js -->
<g id="edge27" class="edge"><title>server.js&#45;&gt;resolveState.js</title>
<path fill="none" stroke="#757575" d="M70.0202,-235.603C151.95,-235.829 366.705,-236.286 546,-235.5 561.992,-235.43 579.246,-235.304 595.372,-235.165"/>
<polygon fill="#757575" stroke="#757575" points="595.813,-238.662 605.782,-235.073 595.751,-231.662 595.813,-238.662"/>
</g>
<!-- server.js&#45;&gt;deckConfig.js -->
<g id="edge24" class="edge"><title>server.js&#45;&gt;deckConfig.js</title>
<path fill="none" stroke="#757575" d="M40.6858,-223.768C49.8075,-202.568 72.077,-158.08 106,-136.5 237.447,-52.8804 295.21,-74.5 451,-74.5 451,-74.5 451,-74.5 662,-74.5 771.086,-74.5 898.134,-69.6898 971.686,-66.4312"/>
<polygon fill="#757575" stroke="#757575" points="971.869,-69.9266 981.702,-65.9823 971.555,-62.9336 971.869,-69.9266"/>
</g>
</g>
</svg>
